# xmcd CD database file
# Copyright (C) 1996 Ti Kan
#
# Track frame offsets:
#	150
#	17187
#	38227
#	59780
#	73767
#	89672
#	108347
#	126215
#	140090
#	157095
#
# Disc length: 2346 seconds
#
# Revision: 1
# Processed by: cddbd v1.4b41PL1 Copyright (c) Steve Scherf et al.
# Submitted via: EasyCD 2.21 - (C) 1996 Greg Leichner
#
DISCID=9b09280a
DTITLE=Edgar Winter - Anthology
DYEAR=1900
DGENRE=
TTITLE0=Keep Playin' That Rock 'N' Roll
TTITLE1=Catching Up
TTITLE2=Frankenstein
TTITLE3=Free Ride
TTITLE4=River's Risin'
TTITLE5=Tobacco Road
TTITLE6=I Can't Turn You Loose
TTITLE7=Hnagin' Around
TTITLE8=Now Is The Time
TTITLE9=Easy Street
EXTD=
EXTT0=
EXTT1=
EXTT2=
EXTT3=
EXTT4=
EXTT5=
EXTT6=
EXTT7=
EXTT8=
EXTT9=
PLAYORDER=
